<svg version="1.0" xmlns="http://www.w3.org/2000/svg"
width="232" height="232"
 viewBox="0 0 512.000000 512.000000"
 preserveAspectRatio="xMidYMid meet">

<g transform="translate(0.000000,512.000000) scale(0.100000,-0.100000)"
fill="#000000" stroke="none">
<path d="M2065 5109 c-103 -8 -243 -39 -314 -70 -44 -18 -71 -49 -71 -80 0 -6
63 -168 141 -361 l140 -351 -20 -48 c-26 -59 -26 -102 -1 -156 19 -42 19 -44
0 -85 -11 -24 -20 -57 -20 -74 0 -28 -11 -41 -90 -104 -168 -134 -352 -334
-507 -550 -76 -107 -163 -249 -163 -267 0 -18 20 -56 33 -65 10 -6 -13 -58
-65 -145 l-20 -33 -398 0 c-275 0 -407 -4 -424 -11 -50 -23 -57 -103 -13 -134
12 -9 44 -15 74 -15 l53 0 0 -80 0 -80 -37 0 c-33 0 -40 5 -53 33 -19 40 -57
55 -98 38 -43 -18 -58 -59 -43 -114 9 -31 9 -50 2 -70 -6 -16 -11 -68 -11
-116 l0 -88 -39 -11 c-99 -30 -125 -88 -117 -253 7 -137 7 -134 0 -284 -5
-111 -3 -123 18 -165 38 -74 82 -90 245 -90 l133 0 0 -80 0 -80 -37 0 c-33 0
-40 5 -53 33 -36 77 -150 46 -150 -41 0 -9 -9 -23 -21 -30 -40 -26 -59 -88
-59 -202 0 -114 19 -176 59 -202 19 -12 21 -22 21 -118 0 -96 -2 -106 -21
-118 -40 -25 -59 -88 -59 -202 0 -133 20 -183 90 -217 44 -23 45 -23 550 -23
477 0 507 1 548 20 26 12 50 33 63 55 12 19 23 35 26 35 2 0 23 -4 46 -9 23
-6 58 -13 78 -16 28 -4 40 -12 49 -34 6 -16 24 -34 39 -40 19 -9 315 -11 1066
-9 l1040 3 98 27 c174 48 357 149 456 252 33 34 38 36 103 36 l68 0 0 -80 0
-80 -95 0 c-88 0 -98 -2 -120 -25 -39 -38 -27 -102 22 -124 16 -7 146 -11 401
-11 372 0 378 0 422 23 33 16 51 34 68 67 21 42 23 53 17 165 -3 66 -4 136 -4
155 1 19 1 88 1 153 0 64 0 135 0 157 0 22 0 93 0 158 0 64 0 133 -1 152 -1
19 2 86 5 149 9 164 -18 223 -116 252 l-38 12 -6 106 c-7 130 -7 131 0 263 6
106 6 107 33 113 49 10 92 44 111 88 15 33 20 65 20 147 0 133 -20 183 -90
218 -42 21 -55 22 -302 22 -167 0 -266 -4 -281 -11 -39 -18 -47 -50 -47 -185
0 -110 -2 -125 -16 -122 -10 2 -28 36 -49 93 -96 269 -279 652 -410 860 -201
320 -412 568 -633 744 -80 64 -92 77 -92 105 0 17 -9 50 -20 74 -19 41 -19 43
0 85 25 54 25 97 -1 156 l-20 48 140 351 c78 193 141 355 141 361 0 31 -28 63
-75 86 -227 107 -517 95 -737 -30 l-41 -23 -61 33 c-81 44 -173 73 -255 80
-36 3 -77 7 -91 9 -14 1 -65 -1 -115 -5z m255 -883 c0 -8 9 -24 19 -37 l19
-24 333 -5 c302 -5 333 -7 343 -22 8 -13 8 -23 0 -35 -10 -17 -46 -18 -469
-21 -480 -2 -489 -2 -483 41 3 21 15 30 63 43 19 6 35 20 45 41 14 31 18 33
73 33 42 0 57 -4 57 -14z m714 -328 c8 -13 8 -23 0 -35 -10 -17 -46 -18 -469
-21 -472 -2 -485 -1 -485 37 0 41 6 41 484 39 424 -3 460 -4 470 -20z m-2314
-1418 l0 -80 -80 0 -80 0 0 80 0 80 80 0 80 0 0 -80z m320 0 l0 -80 -80 0 -80
0 0 80 0 80 80 0 80 0 0 -80z m240 0 l0 -80 -40 0 -40 0 0 80 0 80 40 0 40 0
0 -80z m1409 -175 c150 -36 298 -151 360 -280 52 -107 64 -159 64 -270 -1 -83
-5 -112 -28 -175 -65 -178 -196 -302 -379 -358 -32 -10 -87 -15 -151 -15 -83
1 -112 5 -175 28 -397 145 -508 626 -213 921 136 136 336 193 522 149z m-2289
-145 l0 -80 -40 0 -40 0 0 80 0 80 40 0 40 0 0 -80z m320 0 l0 -80 -80 0 -80
0 0 80 0 80 80 0 80 0 0 -80z m320 0 l0 -80 -80 0 -80 0 0 80 0 80 80 0 80 0
0 -80z m240 0 l0 -80 -40 0 -40 0 0 80 0 80 40 0 40 0 0 -80z m3440 0 l0 -80
-80 0 -80 0 0 80 0 80 80 0 80 0 0 -80z m240 0 l0 -80 -40 0 -40 0 0 80 0 80
40 0 40 0 0 -80z m-4720 -320 l0 -80 -40 0 -40 0 0 80 0 80 40 0 40 0 0 -80z
m320 0 l0 -80 -80 0 -80 0 0 80 0 80 80 0 80 0 0 -80z m320 0 l0 -80 -80 0
-80 0 0 80 0 80 80 0 80 0 0 -80z m240 0 l0 -80 -40 0 -40 0 0 80 0 80 40 0
40 0 0 -80z m3440 0 l0 -80 -50 0 -49 0 -11 43 c-6 23 -15 55 -20 71 -6 16
-10 33 -10 37 0 5 32 9 70 9 l70 0 0 -80z m240 0 l0 -80 -40 0 -40 0 0 80 0
80 40 0 40 0 0 -80z m-4560 -320 l0 -80 -40 0 -40 0 0 80 0 80 40 0 40 0 0
-80z m320 0 l0 -80 -80 0 -80 0 0 80 0 80 80 0 80 0 0 -80z m320 0 l0 -80 -80
0 -80 0 0 80 0 80 80 0 80 0 0 -80z m240 0 l0 -80 -40 0 -40 0 0 80 0 80 40 0
40 0 0 -80z m3440 -1 c0 -71 -2 -80 -17 -77 -17 3 -24 25 -38 115 -6 43 -6 43
24 43 l31 0 0 -81z m240 1 l0 -80 -40 0 -40 0 0 80 0 80 40 0 40 0 0 -80z
m-4080 -320 l0 -80 -80 0 -80 0 0 80 0 80 80 0 80 0 0 -80z m320 0 l0 -80 -80
0 -80 0 0 80 0 80 80 0 80 0 0 -80z m240 0 l0 -80 -40 0 -40 0 0 80 0 80 40 0
40 0 0 -80z m3440 0 l0 -80 -79 0 -78 0 -7 31 c-3 17 -6 53 -6 80 l0 49 85 0
85 0 0 -80z m240 0 l0 -80 -40 0 -40 0 0 80 0 80 40 0 40 0 0 -80z m-4640
-320 l0 -80 -40 0 -40 0 0 80 0 80 40 0 40 0 0 -80z m320 0 l0 -80 -80 0 -80
0 0 80 0 80 80 0 80 0 0 -80z m320 0 l0 -80 -80 0 -80 0 0 80 0 80 80 0 80 0
0 -80z m240 0 l0 -80 -40 0 -40 0 0 80 0 80 40 0 40 0 0 -80z m3520 0 l0 -80
-96 0 c-81 0 -95 2 -90 15 3 8 8 38 11 67 10 81 6 78 95 78 l80 0 0 -80z m240
0 l0 -80 -40 0 -40 0 0 80 0 80 40 0 40 0 0 -80z m-4560 -320 l0 -80 -40 0
-40 0 0 80 0 80 40 0 40 0 0 -80z m320 0 l0 -80 -80 0 -80 0 0 80 0 80 80 0
80 0 0 -80z m320 0 l0 -80 -80 0 -80 0 0 80 0 80 80 0 80 0 0 -80z m240 0 l0
-80 -40 0 -40 0 0 80 0 80 40 0 40 0 0 -80z m3440 0 l0 -80 -161 0 c-88 0
-159 3 -157 8 2 4 20 40 41 80 l37 72 120 0 120 0 0 -80z m240 0 l0 -80 -40 0
-40 0 0 80 0 80 40 0 40 0 0 -80z m-4640 -320 l0 -80 -40 0 -40 0 0 80 0 80
40 0 40 0 0 -80z m320 0 l0 -80 -80 0 -80 0 0 80 0 80 80 0 80 0 0 -80z m320
0 l0 -80 -80 0 -80 0 0 80 0 80 80 0 80 0 0 -80z m320 42 c0 -33 -4 -39 -31
-49 -19 -8 -34 -23 -42 -42 -10 -27 -16 -31 -49 -31 l-38 0 0 80 0 80 80 0 80
0 0 -38z m3440 -42 l0 -80 -80 0 -80 0 0 80 0 80 80 0 80 0 0 -80z m240 0 l0
-80 -40 0 -40 0 0 80 0 80 40 0 40 0 0 -80z"/>
<path d="M2523 2230 c-25 -10 -43 -39 -43 -69 0 -11 -9 -22 -21 -26 -33 -11
-88 -65 -112 -109 -28 -54 -29 -155 -3 -206 41 -79 110 -127 199 -137 90 -11
128 -83 72 -138 -37 -38 -78 -33 -125 15 -22 22 -48 40 -59 40 -62 0 -103 -56
-81 -110 14 -34 77 -95 109 -105 14 -4 21 -15 21 -31 0 -35 42 -74 80 -74 35
0 80 38 80 68 0 11 19 31 48 50 69 45 107 116 107 202 -1 128 -87 222 -218
237 -90 11 -128 83 -72 138 37 38 78 33 125 -15 22 -22 48 -40 59 -40 62 0
103 56 81 110 -14 33 -77 95 -108 104 -11 4 -22 19 -25 34 -3 15 -12 35 -19
44 -16 22 -65 31 -95 18z"/>
<path d="M4283 4468 c-23 -11 -38 -42 -47 -98 -14 -81 -85 -147 -218 -200 -61
-25 -79 -37 -88 -61 -22 -53 0 -83 88 -119 133 -53 204 -119 218 -200 10 -61
25 -88 55 -100 54 -23 109 19 109 83 1 78 86 163 218 216 65 26 83 38 92 62
22 53 0 83 -88 119 -133 53 -204 119 -218 200 -9 58 -24 87 -50 99 -30 13 -42
13 -71 -1z m97 -340 l52 -48 -53 -47 c-29 -27 -55 -48 -59 -48 -4 0 -30 21
-59 47 l-53 48 54 49 c29 28 56 49 59 48 3 -1 30 -23 59 -49z"/>
<path d="M763 4148 c-23 -11 -38 -42 -47 -98 -14 -81 -85 -147 -218 -200 -61
-25 -79 -37 -88 -61 -22 -53 0 -83 88 -119 133 -53 204 -119 218 -200 10 -61
25 -88 55 -100 54 -23 109 19 109 83 1 78 86 163 218 216 65 26 83 38 92 62
22 53 0 83 -88 119 -133 53 -204 119 -218 200 -9 58 -24 87 -50 99 -30 13 -42
13 -71 -1z m90 -339 c29 -23 52 -45 52 -49 0 -4 -24 -26 -52 -49 l-53 -41 -52
41 c-29 23 -53 45 -53 49 0 6 93 87 103 89 1 1 26 -18 55 -40z"/>
</g>
</svg>
